<!-- Generated by IcoMoon.io -->
<svg version="1.1" xmlns="http://www.w3.org/2000/svg" width="1024" height="1024" viewBox="0 0 1024 1024">
<title></title>
<g id="icomoon-ignore">
</g>
<path d="M706 476l-145-145q-15-15-36-15t-36 15v0q-15 15-15 36t15 36l57 58h-213q-21 0-36 15t-15 36v0q0 21 15 36t36 15h213l-57 58q-15 15-15 36t15 36 36 15 36-15l145-145q15-15 15-36t-15-36v0 0zM768 69q-92-53-193-65t-195.5 13.5-176.5 86.5q-81 60-134 152t-65 193 13.5 195.5 86.5 176.5q60 81 152 134t193 65 195.5-13.5 176.5-86.5q81-60 134-152t65-193-13.5-195.5-86.5-176.5q-60-81-152-134v0zM867 717q-43 73-108 122-65 48-141 68.5t-157 10.5q-80-9-154-51-73-43-122-108-48-65-68.5-141t-11.5-157q10-80 52-154 43-73 108-122 65-48 141-68.5t157-11.5q80 10 154 52 73 43 122 108 48 65 68.5 141t10.5 157q-9 80-51 154z"></path>
</svg>
