<!-- Generated by IcoMoon.io -->
<svg version="1.1" xmlns="http://www.w3.org/2000/svg" width="1136" height="1024" viewBox="0 0 1136 1024">
<title></title>
<g id="icomoon-ignore">
</g>
<path d="M576 765q0 10-7 17t-17 7q-34 0-67.5-8.5t-63.5-24.5q-66-36-104.5-101t-38.5-140q0-57 21-107 22-50 59.5-87t86.5-59q50-21 107-21 44 0 85 13t75 37.5 60 58.5q25 35 40 76 3 10-1.5 19t-14.5 12q-9 3-18-1.5t-12-13.5q-23-69-82-111t-132-42q-47 0-88 18t-71.5 48.5-48.5 71.5-18 88q0 62 32 115.5t86 82.5q25 14 52.5 21t55.5 7q10-1 17 6.5t7 17.5v0zM711 515q0 65-46.5 112t-112.5 47-112.5-47-46.5-112q0-66 46.5-113t112.5-47 112.5 47 46.5 113v0zM663 515q0-46-32.5-78.5t-78.5-32.5-78.5 32.5-32.5 78.5q0 45 32.5 77.5t78.5 32.5 78.5-32.5 32.5-77.5zM505 976q-15-3-23.5-6.5t-10.5-5.5l-11-106q-1-7-5.5-12.5t-11.5-7.5q-32-11-61.5-28t-55.5-40q-5-5-12-6t-14 2l-97 43q-7-2-22.5-17.5t-32.5-44.5-22-50.5-4-28.5l86-62q5-4 8-11t1-14q-3-16-5-33t-2-34 2-34 5-34q2-7-1-13.5t-8-10.5l-86-63q-2-7 3.5-28t22.5-50 33-44.5 23-17.5l97 43q6 3 13.5 2t12.5-6q26-22 55-39t61-28q7-2 11.5-7.5t5.5-12.5l11-107q5-4 26.5-10t54.5-6q34 0 55 6t26 10l11 107q1 7 5.5 12.5t11.5 7.5q32 11 61.5 28t54.5 39q6 5 13 6t13-2l98-43q7 2 22.5 17.5t32.5 44.5q16 29 21.5 50.5t4.5 28.5l-86 62q-6 5-8.5 11.5t-1.5 13.5q1 5 2 11t2 11q2 10 9.5 16t17.5 5q10-2 16-9.5t5-17.5q0-3-0.5-5.5t-0.5-4.5l74-54q28-18 18.5-60.5t-31.5-81.5q-12-20-25-36.5t-27-28.5q-22-20-38-21t-26 4l-84 37q-25-19-51.5-34.5t-55.5-26.5l-9-92q-2-33-44-46t-86-13q-48 0-88 14t-41 45l-10 92q-29 11-55.5 26t-50.5 35l-85-38q-28-15-60.5 15t-54.5 68q-12 20-20 40t-11 37q-6 30 1 44.5t16 20.5l75 54q-3 15-4 30.5t-1 31.5q0 15 1 30.5t4 30.5l-75 54q-9 6-16 20.5t-1 43.5q3 17 11 37t20 40q22 39 54.5 68.5t61.5 14.5l83-38q25 20 51.5 35.5t56.5 26.5l9 91q0 12 13.5 28.5t59.5 25.5q1 1 2.5 1h2.5q8 0 15-5.5t8-14.5q2-9-3.5-17.5t-15.5-10.5v0zM860 1000v0q-10 0-17.5-7.5t-7.5-18.5v-353q0-11 7.5-18.5t17.5-7.5v0q11 0 18.5 7.5t7.5 18.5v353q0 11-7.5 18.5t-18.5 7.5v0zM1063 798v0q0 11-7.5 18.5t-18.5 7.5h-353q-11 0-18.5-7.5t-7.5-18.5v0q0-11 7.5-18.5t18.5-7.5h353q11 0 18.5 7.5t7.5 18.5z"></path>
</svg>
