<!-- Generated by IcoMoon.io -->
<svg version="1.1" xmlns="http://www.w3.org/2000/svg" width="1024" height="1024" viewBox="0 0 1024 1024">
<title></title>
<g id="icomoon-ignore">
</g>
<path d="M971 0h-373q-10 0-20 4t-17 11l-545 545q-15 16-15 37.5t15 37.5v0 0l372 372q16 16 37.5 16t37.5-16l545-545q7-7 11-17t4-20v-372q0-22-15.5-37.5t-36.5-15.5zM988 425q0 3-1.5 6.5t-3.5 5.5l-545 545q-5 5-12.5 5t-12.5-5l-372-372q-5-5-5-12.5t5-12.5l545-545q2-2 5.5-3.5t6.5-1.5h373q7 0 12 5t5 13v372zM795 141q-37 0-62.5 25.5t-25.5 62.5q0 36 25.5 61.5t62.5 25.5q36 0 62-25.5t26-61.5q0-37-26-62.5t-62-25.5v0zM795 281q-22 0-37.5-15.5t-15.5-36.5q0-22 15.5-37.5t37.5-15.5 37 15.5 15 37.5q0 21-15 36.5t-37 15.5zM885 624l-194 356q-3 6-10 8t-14-1v-1l-92-52-18 30 92 53q6 3 13 5t13 2q4 0 7.5-0.5t7.5-1.5q10-3 18.5-9.5t13.5-16.5l194-355-31-17zM360 346l25-24 35 35-24 25zM431 417l25-25 35 35-25 25zM501 487l25-25 35 35-25 25-35-35zM571 557l25-25 35 36-24 24zM642 628l25-25 35 35-25 25zM508 751q20-20 20-48t-20-47l-35-36q-20-19-47.5-19t-47.5 19l-35 36q-10 9-23 9t-23-9l-35-36q-9-9-9-22.5t9-22.5l35-35q10-9 23-9t23 9l25-25q-20-20-48-20t-47 20l-6 5-22-23-25 25 23 23-6 5q-19 20-19 47.5t19 47.5l36 35q19 20 47 20t48-20l35-35q9-9 22.5-9t22.5 9l36 35q9 10 9 23t-9 23l-36 35q-9 9-22.5 9t-22.5-9l-25 25q20 20 47.5 20t47.5-20l5-5 23 22 25-24-23-23 5-5zM431 286l105-105 25 25-105 105-25-25zM501 357l106-106 24 25-105 105-25-24zM571 427l106-106 25 25-106 106zM642 497l105-105 25 25-105 105-25-25zM712 568l105-106 25 25-105 105z"></path>
</svg>
