<!-- Generated by IcoMoon.io -->
<svg version="1.1" xmlns="http://www.w3.org/2000/svg" width="1024" height="1024" viewBox="0 0 1024 1024">
<title></title>
<g id="icomoon-ignore">
</g>
<path d="M973 850q-77-41-137.5-64t-112.5-32l7-10q3-2 4-6t0-8l-16-64 8-12t8-13q48-16 72.5-44t28.5-68q21-1 36.5-17t15.5-38v-128q0-21-14.5-37t-36.5-17q-1-37-13-87-12-51-46.5-96t-97.5-77-167-32-167 32-97.5 77-46.5 96q-12 50-13 87-21 1-36 16.5t-15 37.5v128q0 22 16.5 38.5t39.5 16.5h25q8 0 14.5-2t12.5-5q7 38 22.5 75t38.5 69l-16 64q0 3 0.5 6.5t3.5 7.5l7 10q-52 9-112.5 32t-137.5 64q-24 11-37.5 34t-13.5 50v73q0 8 4.5 12.5t12.5 4.5h990q8 0 12.5-4.5t4.5-12.5v-73q0-26-14-48.5t-37-35.5v0zM512 811l41 94h-83zM458 939h108l10 51h-128l10-51zM691 700l7 30-17 24-2 2t-1 2l-71 98-23 31-46-104q42-5 79-25t67-51l3.5-3.5zM758 594q7-18 12.5-36t8.5-37q5 3 10.5 5t11.5 3q-2 18-11.5 34.5t-31.5 30.5zM852 345v128q0 7-6 13.5t-15 6.5h-25q-8 0-14.5-5.5t-6.5-14.5v-128q0-8 6-14.5t15-6.5h25q8 0 14.5 6t6.5 15zM512 34q39 0 89 9 49 9 92.5 36.5t74.5 77.5q31 51 34 135-6 1-11 2.5t-9 3.5q-8-48-32-90t-60-73-82-49q-45-18-96-18t-96 18q-46 18-82 49t-60 73-32 90q-4-2-9-3.5t-11-2.5q3-84 34-135 31-50 74.5-77.5t92.5-36.5q50-9 89-9zM237 473q0 7-5.5 13.5t-14.5 6.5h-26q-8 0-14-5.5t-6-14.5v-128q0-8 5.5-14.5t14.5-6.5h26q7 0 13.5 6t6.5 15v128zM273 341q0-49 19-92 19-44 51.5-76.5t75.5-51.5q44-19 93-19t93 19q43 19 75.5 51.5t51.5 76.5q19 43 19 92v120q0 42-10.5 80.5t-28.5 71.5q-30 8-75 13t-108 5q-8 0-12.5 5t-4.5 13q0 7 4.5 12t12.5 5q46 0 85-3t70-9l-3 3q-6 9-13 16.5t-14 14.5q-30 28-65 44.5t-69 18.5q-2-1-4-1.5t-4-0.5-4 0.5-3 1.5q-21-1-42.5-7.5t-42.5-18.5-40-29-37-39l-5-5h-1q-29-38-46.5-86.5t-17.5-104.5v-120zM486 783l-46 104-23-31-71-98q0-1-0.5-1t-0.5-1l-19-26 7-30 7 7q30 31 67 51t79 25v0zM34 934q0-17 8.5-31.5t24.5-21.5q81-44 142.5-66.5t113.5-29.5l102 140-13 65h-378v-56zM990 990h-378l-13-65 103-141q52 8 114 30.5t141 64.5q16 9 24.5 23.5t8.5 31.5v56z"></path>
</svg>
