<!-- Generated by IcoMoon.io -->
<svg version="1.1" xmlns="http://www.w3.org/2000/svg" width="1024" height="1024" viewBox="0 0 1024 1024">
<title></title>
<g id="icomoon-ignore">
</g>
<path d="M773 278q-7-7-16-11t-18-4h-24l2-43 4-55q2-31-8.5-60t-31.5-52q-22-23-50-35t-59-12h-120q-31 0-59 12t-50 35q-21 23-31.5 52t-8.5 60l5 82 1 16h-26q-9 0-18 4t-16 11q-6 7-9.5 16.5t-2.5 19.5l8 90q1 14 9.5 24.5t20.5 15.5v84q0 9 6 15t15 6q8 0 14-6t6-15v-81h6q5 46 31 84t67 61q21 12 44.5 18t47.5 6 47.5-6 44.5-18 38-27.5 30-34.5q10-1 20-4t19-8q44-24 55-67.5t11-46.5v0 0l8-90q1-10-2.5-19.5t-9.5-16.5v0zM291 406q-2 0-3.5-1.5t-2.5-3.5l-7-91q0-1 0.5-2.5l0.5-1.5q1-1 2-1.5t2-0.5h29l7 102h-28zM344 163q-2-23 5.5-44t23.5-38q16-16 36.5-25t42.5-9h127l-31 84q-4 7-46.5 44.5t-153.5 47.5zM663 433q-1 15-5 29t-10 27q-13-1-28-6t-32-13q1-3 1.5-5.5t0.5-5.5q0-21-15-36t-36-15q-22 0-36.5 15t-14.5 36 14.5 36 36.5 15q7 0 13-2t12-5q16 8 30.5 14t28.5 9q-8 9-17.5 16.5t-20.5 13.5q-34 19-73 19t-73-19-54.5-51.5-23.5-71.5l-11-169q86-8 136-34t73-49q6 8 15 14.5t20 11.5q12 7 32.5 13.5t49.5 13.5l-13 199zM549 459q0 4-3 7t-7 3q-5 0-8-3t-3-7 3-7 8-3q4 0 7 3t3 7zM680 163l-2 30q-28-7-43-12.5t-22-9.5q-17-8-22.5-14.5t-5.5-9.5v0 0 0 0l34-89q9 4 17 10t15 13q16 17 23.5 38t5.5 44zM695 480q3-8 4.5-16.5t2.5-16.5h21q-4 9-11 18t-17 15zM736 401q0 2-1.5 3.5t-3.5 1.5h-26l7-102h27q1 0 2 0.5t2 1.5l0.5 1.5t0.5 2.5zM1024 994l-20-109q-8-46-29.5-86.5t-54.5-73.5q-32-32-72.5-53.5t-85.5-29.5q-14-3-28-4.5t-28-1.5h-59q-4 0-8 1.5t-7 4.5l-120 121-120-121q-3-3-7-4.5t-8-1.5h-59q-14 0-28 1.5t-28 4.5v0 0q-45 8-85.5 29.5t-72.5 53.5q-33 33-54.5 73.5t-29.5 86.5l-20 109q0 5 1 9t4 8q3 3 7 5t8 2h984q4 0 8-2t7-5q3-4 4-8t1-9v0zM526 806l129-129h59l-202 202-29-29zM318 677h51l114 114-29 30-144-144h8zM45 977l15-85q14-77 68.5-134t130.5-74l240 240q6 4 13 4t13-4l240-240q76 17 130.5 74t68.5 134l15 85h-934zM296 569q-9 0-15 6t-6 15v8q0 8 6 14t15 6q8 0 14-6t6-14v-8q0-9-6-15t-14-6z"></path>
</svg>
