<!-- Generated by IcoMoon.io -->
<svg version="1.1" xmlns="http://www.w3.org/2000/svg" width="1511" height="1024" viewBox="0 0 1511 1024">
<title></title>
<g id="icomoon-ignore">
</g>
<path d="M1511 361v4q-9 9-18.5 17.5t-18.5 17.5q-18 19-25 20t-30-13q-10-6-20.5-14.5t-18.5-6.5q-21 5-43 10t-37 26q-30 40-60 81-31 40-61 80.5t-60 80.5l-60 82q-17 23-37.5 40.5t-48.5 25.5h-629q-36-15-47.5-32.5t-11.5-56.5v-83q0-32-13-51t-44-30q-43-17-87-34t-88-33q-17-6-31-16.5t-22-27.5v-33q14-51 27-101.5t27-101.5h4l18 9q72 26 143.5 53t143.5 53q11 4 15.5 10.5t3.5 18.5q-1 8 0 16.5t2 16.5h149v-75h-69v-88h244v86h-78v77q35 0 70 1t69-2q30-2 52 7.5t37 33.5q7 10 15 11t19-2q63-19 126-39 64-19 127.5-38t126.5-38q63-20 127-39 10-3 17.5-1.5t15.5 8.5q19 18 39 35.5t40 34.5v0zM290 491v-58q0-35-5.5-43t-37.5-20q-27-10-53.5-20t-53.5-19q-20-8-28-3.5t-12 24.5q-2 8-4 15.5t-3 14.5q-6 22-2 29.5t25 15.5q27 10 54 19.5t54 19.5q16 7 32 12.5t34 12.5v0zM1443 479q-5 4-11 7t-10 8q-14 18-27.5 36.5t-24.5 38.5q-15 25-14 51.5t11 52.5q6 17 17.5 28.5t30.5 14.5 34.5-5 27.5-23q20-25 21-57t-18-62q-13-20-24.5-40t-6.5-47q-1-1-3-1.5t-3-1.5v0z"></path>
</svg>
