<!-- Generated by IcoMoon.io -->
<svg version="1.1" xmlns="http://www.w3.org/2000/svg" width="1424" height="1024" viewBox="0 0 1424 1024">
<title></title>
<g id="icomoon-ignore">
</g>
<path d="M1210 633q-9 33-23 51.5t-26 18.5q-18 0-38.5-39t-20.5-103q0-63 20-102t37-40v-1h116q-1-2-2.5-4t-2.5-5q-18-32-46-54t-65-22h-669q-31 1-59 21t-47 55q-4 7-7.5 14.5t-6.5 14.5h-83v-78q0-52-37-89t-89-37h-97q-26 0-45 18.5t-19 45.5 19 45.5 45 18.5h95v78q0 53 37 90t89 37h63q1 40 10 77.5t26 67.5q18 33 47 55.5t66 20.5h664q32 0 60.5-20t48.5-56q10-17 17-37t11-42h-88zM1396 462h-195q-11 0-19.5 19t-8.5 46q0 26 8.5 45t19.5 19h195q12 0 20-19t8-45q0-27-8-46t-20-19v0z"></path>
</svg>
