<!-- Generated by IcoMoon.io -->
<svg version="1.1" xmlns="http://www.w3.org/2000/svg" width="1072" height="1024" viewBox="0 0 1072 1024">
<title></title>
<g id="icomoon-ignore">
</g>
<path d="M536 0q-106 0-199 40-93 41-162.5 110.5t-110.5 162.5q-40 93-40 199t40 199q41 93 110.5 162.5t162.5 110.5q93 40 199 40t199-40q93-41 162.5-110.5t110.5-162.5q40-93 40-199t-40-199q-41-93-110.5-162.5t-162.5-110.5q-93-40-199-40zM536 876q-75 0-142-29-66-29-115-78t-78-115q-29-67-29-142t29-142q29-66 78-115t115-78q67-29 142-29t142 29q66 29 115 78t78 115q29 67 29 142t-29 142q-29 66-78 115t-115 78q-67 29-142 29zM536 195q-65 0-123 25t-101 68-68 101-25 123 25 123 68 101 101 68 123 25 123-25 101-68 68-101 25-123-25-123-68-101-101-68-123-25zM812 492h-154q-2-15-7.5-28t-13.5-25l108-108q29 33 46.5 74t20.5 87v0zM556 236q46 3 87 20.5t74 46.5l-109 108q-11-8-24.5-13.5t-27.5-8.5v-153zM516 236v153q-14 3-27.5 8.5t-24.5 13.5l-109-108q33-29 74-46.5t87-20.5v0zM327 331l108 108q-8 12-13.5 25t-7.5 28h-154q3-46 20.5-87t46.5-74zM260 532h154q2 14 7.5 27.5t13.5 24.5l-108 109q-29-33-46.5-74t-20.5-87v0zM516 788q-46-3-87-20.5t-74-46.5l109-109q11 9 24.5 14.5t27.5 7.5v154zM516 593v1q-6-2-12-4.5t-12-5.5v-1q-8-5-15-12t-13-16v0q-3-5-5.5-11t-4.5-12v0q-1-5-1.5-10t-0.5-10 0.5-10 1.5-10v0q2-7 4.5-13t5.5-11v0q6-9 13-16t15-12v0q6-4 12-6.5t12-3.5v0q5-1 10-1.5t10-0.5 10 0.5 10 1.5v0q6 1 12 3.5t12 6.5v0q8 5 15 12t13 16v0q3 5 5.5 11t4.5 13v0q1 5 1.5 10t0.5 10-0.5 10-1.5 10v0q-2 6-4.5 12t-5.5 11v0q-6 9-13 16t-15 12v1q-6 3-12 5.5t-12 4.5v-1l-10 2t-10 1-10-1zM556 788v-154q14-2 27.5-7.5t24.5-14.5l109 109q-33 29-74 46.5t-87 20.5v0zM745 693l-108-109q8-11 13.5-24.5t7.5-27.5h154q-3 46-20.5 87t-46.5 74v0z"></path>
</svg>
