<!-- Generated by IcoMoon.io -->
<svg version="1.1" xmlns="http://www.w3.org/2000/svg" width="1024" height="1024" viewBox="0 0 1024 1024">
<title></title>
<g id="icomoon-ignore">
</g>
<path d="M991 331v-215q0-35-24-59t-59-24h-215q-42-16-87.5-24.5t-93.5-8.5-93.5 8.5-87.5 24.5h-215q-35 0-59 24t-24 59v215q-16 42-24.5 87.5t-8.5 93.5 8.5 93.5 24.5 87.5v215q0 35 24 59t59 24h215q42 16 87.5 24.5t93.5 8.5 93.5-8.5 87.5-24.5h215q35 0 59-24t24-59v-215q16-42 24.5-87.5t8.5-93.5-8.5-93.5-24.5-87.5zM908 66q21 0 35.5 14.5t14.5 35.5v145q-35-61-84.5-110.5t-110.5-84.5h145zM66 116q0-21 14.5-35.5t35.5-14.5h145q-61 35-110.5 84.5t-84.5 110.5v-145zM116 958q-21 0-35.5-14.5t-14.5-35.5v-145q35 61 84.5 110.5t110.5 84.5h-145zM958 908q0 21-14.5 35.5t-35.5 14.5h-145q61-35 110.5-84.5t84.5-110.5v145zM512 991q-99 0-186-38-87-37-152.5-102.5t-102.5-152.5q-38-87-38-186t38-186q37-87 102.5-152.5t152.5-102.5q87-38 186-38t186 38q87 37 152.5 102.5t102.5 152.5q38 87 38 186t-38 186q-37 87-102.5 152.5t-152.5 102.5q-87 38-186 38zM603 583l118 53q9 4 19 6t21 2q40 0 69-28.5t29-69.5v-166q0-27-19.5-46.5t-47.5-19.5q-19 0-36 10.5t-25 28.5l-18 42q-13 30-37 50.5t-54 30.5q-6-17-15.5-30.5t-23.5-24.5l53-118q4-9 6-19t2-21q0-40-29-69t-69-29h-166q-27 0-46.5 19.5t-19.5 47.5q0 19 10.5 36t28.5 25l42 18q30 13 50.5 37t30.5 54q-17 6-30.5 15.5t-24.5 23.5l-118-53q-9-4-19-6t-21-2q-40 0-69 28.5t-29 69.5v166q0 27 19.5 46.5t47.5 19.5q19 0 36-10.5t25-28.5l18-42q13-30 37-50.5t54-30.5q6 17 15.5 30.5t23.5 24.5l-53 118q-4 9-6 19t-2 21q0 40 28.5 69t69.5 29h166q27 0 46.5-19.5t19.5-47.5q0-19-10.5-36t-28.5-25l-42-18q-30-13-50.5-37t-30.5-54q17-6 30.5-15.5t24.5-23.5v0zM628 512q0-1-0.5-2t-0.5-2q39-11 69.5-37t46.5-62l19-42q4-9 12-14.5t18-5.5q14 0 24 10t10 23v166q0 27-19 46t-46 19q-7 0-14-1.5t-13-4.5l-115-51q4-9 6.5-20t2.5-22v0zM396 512q0 1 0.5 2t0.5 2q-39 11-69.5 37t-46.5 62l-19 42q-4 9-12 14.5t-18 5.5q-14 0-24-10t-10-23v-166q0-27 19-46t46-19q7 0 14 1.5t13 4.5l115 51q-4 9-6.5 20t-2.5 22v0zM409 281l-42-19q-9-4-14.5-12t-5.5-18q0-14 10-24t23-10h166q27 0 46 19t19 46q0 7-1.5 14t-3.5 13l-51 115q-10-4-21-6.5t-22-2.5q-1 0-2 0.5t-2 0.5q-11-39-37-69.5t-62-46.5v0zM615 743l42 19q9 4 14.5 12t5.5 18q0 14-10 24t-23 10h-166q-27 0-46-19t-19-46q0-7 1.5-14t4.5-13l50-115q10 4 21 6.5t22 2.5q1 0 2-0.5t2-0.5q11 39 37 69.5t62 46.5v0zM512 595q-34 0-58.5-24.5t-24.5-58.5 24.5-58.5 58.5-24.5 58.5 24.5 24.5 58.5-24.5 58.5-58.5 24.5zM512 66q-92 0-173 35-82 35-142.5 95.5t-95.5 142.5q-35 81-35 173t35 173q35 82 95.5 142.5t142.5 95.5q81 35 173 35 73 0 141-22.5t126-66.5l-20-26q-54 40-117 61t-130 21q-85 0-161-33-75-32-131-88t-88-131q-33-76-33-161t33-161q32-75 88-131t131-88q76-33 161-33t161 33q75 32 131 88t88 131q33 76 33 161 0 44-9 87-10 42-27.5 81.5t-42.5 74.5q-26 36-59 65l22 24q36-31 63-69 28-38 47-80.5t29-88.5 10-94q0-92-35-173-35-82-95.5-142.5t-142.5-95.5q-81-35-173-35v0zM99 99h33v33h-33v-33zM892 99h33v33h-33v-33zM99 892h33v33h-33v-33zM892 892h33v33h-33v-33z"></path>
</svg>
