<!-- Generated by IcoMoon.io -->
<svg version="1.1" xmlns="http://www.w3.org/2000/svg" width="1136" height="1024" viewBox="0 0 1136 1024">
<title></title>
<g id="icomoon-ignore">
</g>
<path d="M1001 624q-9 0-15.5 6.5t-6.5 15.5v272h-181v-378h203q9 0 15.5-6.5t6.5-15.5-6.5-15.5-15.5-6.5h-224q-10 0-16 6.5t-6 15.5v11l-140-139q-16-16-37-20t-41 3q34-33 52.5-76t18.5-91q0-63-32.5-118t-88.5-85q-5-3-11-3t-11 3-7.5 8-2.5 11v195h-157v-195q0-6-3-11t-8-8-10.5-3-11.5 3q-55 30-87.5 85t-32.5 118q0 52 21.5 98t60.5 79v57h-39q-31 0-53 22t-22 53v1q0 15 6 28.5t16 23.5q-10 10-16 23.5t-6 29.5v1q0 15 6 28.5t16 23.5q-10 10-16 23.5t-6 29.5v1q0 15 6 28.5t16 23.5q-10 11-16 24.5t-6 28.5v1q0 31 22 52.5t53 21.5h43q11 51 51.5 83.5t92.5 32.5h2q53 0 93.5-33t51.5-83h174q9 0 15.5-6t6.5-15-6.5-15.5-15.5-6.5h-171v-181q0-9-6.5-15.5t-15.5-6.5-15 6.5-6 15.5v192q0 43-30.5 73.5t-74.5 30.5h-2q-34 0-61.5-20t-37.5-52h34q31 0 53-21.5t22-52.5v-1q0-15-6-28.5t-16-24.5q10-10 16-23.5t6-28.5v-1q0-16-6-29.5t-16-23.5q10-10 16-23.5t6-28.5v-1q0-16-6-29.5t-16-23.5q10-10 16-23.5t6-28.5v-1q0-31-22-53t-53-22h-39v-67q0-5-2.5-10t-6.5-8q-35-27-54.5-66t-19.5-83q0-42 17.5-79t48.5-64v176q0 9 6.5 15t15.5 6h200q10 0 16-6t6-15v-176q31 27 48.5 64t17.5 79q0 44-19.5 83t-54.5 66q-4 3-6 8t-2 10v46l-59 58q-10 10-16 24t-6 28q0 15 6 29t16 24l1 1q11 11 24.5 16.5t28.5 5.5q14 0 27.5-5.5t24.5-16.5l44-44q6-6 6-15t-6-16q-7-6-16-6t-15 6l-44 44q-9 9-21.5 9t-21.5-9l-1-1q-4-4-6.5-9.5t-2.5-12.5q0-6 2.5-11.5t6.5-9.5l87-87q9-9 21.5-9t21.5 9v0 0 0l171 170v349q0 9 6 15t16 6h224q9 0 15.5-6t6.5-15v-294q0-9-6.5-15.5t-15.5-6.5v0zM341 621v1q0 12-9 21t-22 9h-122q-13 0-22-9t-9-21v-1q0-13 9-22t22-9h122q13 0 22 9t9 22zM341 727v1q0 13-9 22t-22 9h-122q-13 0-22-9t-9-22v-1q0-13 9-22t22-9h122q13 0 22 9t9 22zM341 834q0 13-9 22t-22 9h-122q-13 0-22-9t-9-22v-1q0-13 9-22t22-9h122q13 0 22 9t9 22v1zM341 515v1q0 12-9 21t-22 9h-122q-13 0-22-9t-9-21v-1q0-13 9-22t22-9h122q13 0 22 9t9 22z"></path>
</svg>
