<?xml version="1.0" encoding="iso-8859-1"?>
<!-- Generator: Adobe Illustrator 17.1.0, SVG Export Plug-In . SVG Version: 6.00 Build 0)  -->
<!DOCTYPE svg PUBLIC "-//W3C//DTD SVG 1.1//EN" "http://www.w3.org/Graphics/SVG/1.1/DTD/svg11.dtd">
<svg version="1.1" id="Capa_1" xmlns="http://www.w3.org/2000/svg" xmlns:xlink="http://www.w3.org/1999/xlink" x="0px" y="0px"
	 viewBox="0 0 351.003 351.003" style="enable-background:new 0 0 351.003 351.003;" xml:space="preserve">
<path d="M323.905,213.937c-4.143,0-7.5,3.357-7.5,7.5v93.12h-61.914v-115.01c0-0.003,0-0.007,0-0.01v-14.401h69.414
	c4.143,0,7.5-3.357,7.5-7.5s-3.357-7.5-7.5-7.5h-76.914c-4.143,0-7.5,3.357-7.5,7.5v3.799l-47.761-47.761
	c-7.28-7.28-17.901-9.224-26.972-5.846c15.603-14.931,24.399-35.315,24.399-57.167c0-29.081-15.878-55.807-41.438-69.745
	c-2.322-1.268-5.144-1.215-7.42,0.135c-2.275,1.352-3.671,3.803-3.671,6.449v66.763h-53.74V7.499c0-2.646-1.396-5.098-3.671-6.449
	c-2.275-1.351-5.096-1.401-7.42-0.136C46.237,14.854,30.359,41.579,30.359,70.661c0,23.612,10.266,45.518,28.299,60.674v19.541
	H45.106c-14.065,0-25.508,11.442-25.508,25.508v0.364c0,7.022,2.853,13.391,7.46,18.008c-4.607,4.617-7.46,10.985-7.46,18.008v0.364
	c0,7.022,2.853,13.391,7.46,18.008c-4.607,4.617-7.46,10.985-7.46,18.008v0.364c0,7.022,2.853,13.391,7.46,18.008
	c-4.607,4.617-7.46,10.985-7.46,18.008v0.363c0,14.065,11.442,25.509,25.508,25.509H59.87c5.093,22.88,25.583,39.608,49.452,39.608
	h0.872c24.139,0,44.375-16.973,49.435-39.608h59.873c4.143,0,7.5-3.357,7.5-7.5s-3.357-7.5-7.5-7.5h-58.644v-61.894
	c0-4.143-3.357-7.5-7.5-7.5s-7.5,3.357-7.5,7.5v65.838c0,19.665-15.999,35.664-35.664,35.664h-0.872
	c-15.646,0-29.229-10.206-33.917-24.608H87.21c14.065,0,25.508-11.443,25.508-25.509v-0.363c0-7.022-2.853-13.391-7.46-18.008
	c4.607-4.617,7.46-10.985,7.46-18.008v-0.364c0-7.022-2.853-13.391-7.46-18.008c4.607-4.617,7.46-10.985,7.46-18.008v-0.364
	c0-7.022-2.853-13.391-7.46-18.008c4.607-4.617,7.46-10.985,7.46-18.008v-0.364c0-14.065-11.442-25.508-25.508-25.508H73.658
	v-23.138c0-2.335-1.088-4.537-2.942-5.956c-16.114-12.33-25.356-30.963-25.356-51.121c0-19.038,8.39-36.83,22.529-48.933v60.034
	c0,4.143,3.357,7.5,7.5,7.5h68.74c4.143,0,7.5-3.357,7.5-7.5V21.728c14.137,12.103,22.528,29.896,22.528,48.933
	c0,20.159-9.242,38.792-25.356,51.12c-1.854,1.42-2.942,3.622-2.942,5.957v15.733l-19.974,19.974
	c-4.817,4.818-7.472,11.225-7.472,18.038c0,6.813,2.654,13.219,7.472,18.037l0.257,0.257c4.974,4.973,11.505,7.459,18.037,7.459
	c6.531-0.001,13.064-2.487,18.036-7.459l14.932-14.931c2.93-2.929,2.93-7.678,0.001-10.606c-2.929-2.93-7.678-2.929-10.606-0.001
	l-14.933,14.931c-4.096,4.098-10.764,4.098-14.859,0l-0.257-0.257c-1.985-1.984-3.079-4.623-3.079-7.43
	c0-2.808,1.094-5.446,3.079-7.431l29.771-29.771c4.097-4.099,10.763-4.098,14.85-0.011l0,0c0.003,0.003,0.006,0.007,0.009,0.01
	l58.368,58.369v119.407c0,4.143,3.357,7.5,7.5,7.5h76.914c4.143,0,7.5-3.357,7.5-7.5v-100.62
	C331.405,217.294,328.048,213.937,323.905,213.937z M97.717,212.763v0.364c0,5.794-4.714,10.508-10.508,10.508H45.106
	c-5.794,0-10.508-4.714-10.508-10.508v-0.364c0-5.794,4.714-10.508,10.508-10.508H87.21
	C93.004,202.255,97.717,206.969,97.717,212.763z M97.717,249.143v0.364c0,5.794-4.714,10.508-10.508,10.508H45.106
	c-5.794,0-10.508-4.714-10.508-10.508v-0.364c0-5.794,4.714-10.508,10.508-10.508H87.21
	C93.004,238.635,97.717,243.349,97.717,249.143z M97.717,285.886c0,5.795-4.714,10.509-10.508,10.509H45.106
	c-5.794,0-10.508-4.714-10.508-10.509v-0.363c0-5.794,4.714-10.508,10.508-10.508H87.21c5.794,0,10.508,4.714,10.508,10.508V285.886
	z M97.717,176.383v0.364c0,5.794-4.714,10.508-10.508,10.508H45.106c-5.794,0-10.508-4.714-10.508-10.508v-0.364
	c0-5.794,4.714-10.508,10.508-10.508H87.21C93.004,165.875,97.717,170.589,97.717,176.383z"/>
<g>
</g>
<g>
</g>
<g>
</g>
<g>
</g>
<g>
</g>
<g>
</g>
<g>
</g>
<g>
</g>
<g>
</g>
<g>
</g>
<g>
</g>
<g>
</g>
<g>
</g>
<g>
</g>
<g>
</g>
</svg>
