<!-- Generated by IcoMoon.io -->
<svg version="1.1" xmlns="http://www.w3.org/2000/svg" width="1024" height="1024" viewBox="0 0 1024 1024">
<title></title>
<g id="icomoon-ignore">
</g>
<path d="M545 66h-19.5t-18.5 1v100q0 18-12.5 31t-30.5 14q-25 2-48.5 7.5t-45.5 15.5-42 24-38 31q-17 18-31 38t-24 42-15.5 45.5-7.5 48.5q-1 18-14 30.5t-31 12.5h-100q-1 9-1 18.5v19.5q0 99 37 186 38 88 103 153t152 102q88 38 187 38t186-38q88-37 153-102t102-153q38-87 38-186t-38-187q-37-87-102-152t-153-103q-87-37-186-37v0zM751 751q-42 41-95 63t-111 22q-59 0-112-22t-94-63q-41-42-63-95t-22-111q0-59 22-112t63-94 94-63 112-22q58 0 111 22t95 63q41 41 63 94t22 112q0 58-22 111t-63 95zM545 310q-49 0-92 18-42 19-74 51t-51 74q-18 43-18 92 0 48 18 91 19 43 51 75t74 50q43 19 92 19 48 0 91-19 43-18 75-50t50-75q19-43 19-91 0-49-19-92-18-42-50-74t-75-51q-43-18-91-18v0zM545 361q11 0 18.5 7.5t7.5 18.5-7.5 18.5-18.5 7.5-19-7.5-8-18.5 8-18.5 19-7.5zM385 573q-11 0-18.5-8t-7.5-19 7.5-18.5 18.5-7.5 19 7.5 8 18.5-8 19-19 8zM545 732q-11 0-19-7.5t-8-18.5 8-18.5 19-7.5 18.5 7.5 7.5 18.5-7.5 18.5-18.5 7.5zM545 629q-35 0-59.5-24.5t-24.5-59.5 24.5-59.5 59.5-24.5 59.5 24.5 24.5 59.5-24.5 59.5-59.5 24.5zM731 546q0 11-8 19t-19 8-18.5-8-7.5-19 7.5-18.5 18.5-7.5 19 7.5 8 18.5zM18 479h149q7 0 12-5t5-12q4-54 26-103.5t60-88.5q39-38 88.5-60t103.5-26q7 0 12-5t5-12v-149q0-8-5.5-13t-12.5-5v0h-1q-93 4-176 41-82 37-144 99t-99 144q-37 83-41 176 0 8 5 13.5t13 5.5v0z"></path>
</svg>
